<?xml version="1.0" encoding="UTF-8" standalone="no"?>
<svg
   width="1000"
   height="1000"
   version="1.1"
   id="svg5"
   sodipodi:docname="logo.svg"
   inkscape:version="1.4.2 (ebf0e940d0, 2025-05-08)"
   xmlns:inkscape="http://www.inkscape.org/namespaces/inkscape"
   xmlns:sodipodi="http://sodipodi.sourceforge.net/DTD/sodipodi-0.dtd"
   xmlns:xlink="http://www.w3.org/1999/xlink"
   xmlns="http://www.w3.org/2000/svg"
   xmlns:svg="http://www.w3.org/2000/svg">
  <sodipodi:namedview
     id="namedview5"
     pagecolor="#ffffff"
     bordercolor="#000000"
     borderopacity="0.25"
     inkscape:showpageshadow="2"
     inkscape:pageopacity="0.0"
     inkscape:pagecheckerboard="0"
     inkscape:deskcolor="#d1d1d1"
     inkscape:zoom="0.25"
     inkscape:cx="-354"
     inkscape:cy="-196"
     inkscape:window-width="1884"
     inkscape:window-height="980"
     inkscape:window-x="0"
     inkscape:window-y="0"
     inkscape:window-maximized="0"
     inkscape:current-layer="svg5" />
  <defs
     id="defs3">
    <linearGradient
       id="g"
       x1="254.17999"
       y1="564.76001"
       x2="254.17999"
       y2="141.44"
       gradientUnits="userSpaceOnUse">
      <stop
         offset="0"
         stop-color="#f193b6"
         id="stop1" />
      <stop
         offset=".59"
         stop-color="#e267a3"
         id="stop2" />
      <stop
         offset="1"
         stop-color="#bf1e83"
         id="stop3" />
    </linearGradient>
    <linearGradient
       inkscape:collect="always"
       xlink:href="#g"
       id="linearGradient5"
       gradientUnits="userSpaceOnUse"
       x1="254.17999"
       y1="564.76001"
       x2="254.17999"
       y2="141.44"
       gradientTransform="matrix(1.2631844,0,0,1.2631844,99.999387,100.00001)" />
    <linearGradient
       inkscape:collect="always"
       xlink:href="#g"
       id="linearGradient6"
       gradientUnits="userSpaceOnUse"
       x1="254.17999"
       y1="564.76001"
       x2="254.17999"
       y2="141.44"
       gradientTransform="matrix(1.2631844,0,0,1.2631844,99.999387,100.00001)" />
    <linearGradient
       inkscape:collect="always"
       xlink:href="#g"
       id="linearGradient7"
       gradientUnits="userSpaceOnUse"
       x1="254.17999"
       y1="564.76001"
       x2="254.17999"
       y2="141.44"
       gradientTransform="matrix(1.2631844,0,0,1.2631844,99.999387,100.00001)" />
  </defs>
  <path
     fill="url(#g)"
     d="m 662.13289,389.63556 c 0,-42.9609 -34.826,-77.78689 -77.7869,-77.78689 H 378.27008 c -84.0523,0 -152.17584,68.13618 -152.17584,152.17583 v 362.02867 c 0,40.83875 33.10807,73.94682 73.94682,73.94682 h 7.6549 c 40.83876,0 73.94681,-33.10807 73.94681,-73.94682 V 544.22409 c 0,-42.41773 34.38389,-76.81425 76.81426,-76.81425 h 125.88896 c 42.9609,0 77.7869,-34.826 77.7869,-77.7869 z"
     id="path3"
     style="fill:url(#linearGradient5);stroke-width:1.26319" />
  <path
     fill="url(#g)"
     d="m 715.64139,363.63924 h 159.99493 c 0.77054,0 1.3895,-0.66949 1.31372,-1.44003 C 863.53501,215.39191 739.8061,100.00001 589.55031,100.00001 H 199.78212 c -42.37985,0 -76.73845,34.35862 -76.73845,76.73846 v 7.79384 c 0,42.37984 34.3586,76.73846 76.73845,76.73846 h 389.76819 c 61.27707,0 112.56236,43.49144 124.68893,101.21897 0.13892,0.66949 0.72001,1.1495 1.41477,1.1495 z"
     id="path4"
     style="fill:url(#linearGradient6);stroke-width:1.26319" />
  <path
     fill="url(#g)"
     d="m 714.47926,415.21505 c -0.18948,0 -0.35369,0.13891 -0.3916,0.3158 -12.36657,57.41174 -63.48765,100.58737 -124.53735,100.58737 H 510.8034 c -42.60723,0 -77.15531,34.5481 -77.15531,77.15531 v 6.96016 c 0,42.60721 34.54808,77.15529 77.15531,77.15529 h 78.74691 c 150.09158,0 273.73207,-115.13925 287.3871,-261.71917 a 0.4219036,0.4219036 0 0 0 -0.41685,-0.45476 H 714.49188 Z"
     id="path5"
     style="fill:url(#linearGradient7);stroke-width:1.26319" />
</svg>
